<svg width="234" height="43" viewBox="0 0 234 43" fill="none" xmlns="http://www.w3.org/2000/svg">
<path d="M63.14 32.36C61.72 32.36 60.4 32.1 59.18 31.58C57.98 31.06 56.94 30.34 56.06 29.42C55.2 28.48 54.57 27.39 54.17 26.15L57.56 24.68C58.1 25.96 58.88 26.97 59.9 27.71C60.92 28.43 62.07 28.79 63.35 28.79C64.07 28.79 64.69 28.68 65.21 28.46C65.75 28.22 66.16 27.9 66.44 27.5C66.74 27.1 66.89 26.62 66.89 26.06C66.89 25.4 66.69 24.86 66.29 24.44C65.91 24 65.33 23.66 64.55 23.42L60.26 22.04C58.52 21.5 57.21 20.69 56.33 19.61C55.45 18.53 55.01 17.26 55.01 15.8C55.01 14.52 55.32 13.39 55.94 12.41C56.58 11.43 57.46 10.67 58.58 10.13C59.72 9.57 61.02 9.29 62.48 9.29C63.82 9.29 65.05 9.53 66.17 10.01C67.29 10.47 68.25 11.12 69.05 11.96C69.87 12.78 70.48 13.75 70.88 14.87L67.52 16.37C67.08 15.25 66.42 14.39 65.54 13.79C64.66 13.17 63.64 12.86 62.48 12.86C61.8 12.86 61.2 12.98 60.68 13.22C60.16 13.44 59.75 13.76 59.45 14.18C59.17 14.58 59.03 15.06 59.03 15.62C59.03 16.24 59.23 16.79 59.63 17.27C60.03 17.73 60.64 18.09 61.46 18.35L65.57 19.64C67.35 20.22 68.68 21.02 69.56 22.04C70.46 23.06 70.91 24.32 70.91 25.82C70.91 27.1 70.58 28.23 69.92 29.21C69.26 30.19 68.35 30.96 67.19 31.52C66.03 32.08 64.68 32.36 63.14 32.36ZM80.0738 32.36C78.8138 32.36 77.7138 32.08 76.7738 31.52C75.8538 30.96 75.1438 30.18 74.6438 29.18C74.1638 28.18 73.9238 27.01 73.9238 25.67V15.68H77.8538V25.34C77.8538 26.02 77.9838 26.62 78.2438 27.14C78.5238 27.64 78.9138 28.04 79.4138 28.34C79.9338 28.62 80.5138 28.76 81.1538 28.76C81.7938 28.76 82.3638 28.62 82.8638 28.34C83.3638 28.04 83.7538 27.63 84.0338 27.11C84.3138 26.59 84.4538 25.97 84.4538 25.25V15.68H88.3838V32H84.6638V28.79L84.9938 29.36C84.6138 30.36 83.9838 31.11 83.1038 31.61C82.2438 32.11 81.2338 32.36 80.0738 32.36ZM92.037 38V15.68H95.727V18.92L95.367 18.11C95.927 17.23 96.687 16.55 97.647 16.07C98.607 15.57 99.717 15.32 100.977 15.32C102.517 15.32 103.907 15.7 105.147 16.46C106.387 17.22 107.367 18.24 108.087 19.52C108.827 20.8 109.197 22.24 109.197 23.84C109.197 25.42 108.837 26.86 108.117 28.16C107.397 29.46 106.417 30.49 105.177 31.25C103.937 31.99 102.527 32.36 100.947 32.36C99.767 32.36 98.677 32.13 97.677 31.67C96.697 31.19 95.917 30.51 95.337 29.63L95.967 28.85V38H92.037ZM100.497 28.76C101.397 28.76 102.197 28.55 102.897 28.13C103.597 27.71 104.137 27.13 104.517 26.39C104.917 25.65 105.117 24.8 105.117 23.84C105.117 22.88 104.917 22.04 104.517 21.32C104.137 20.58 103.597 20 102.897 19.58C102.197 19.14 101.397 18.92 100.497 18.92C99.637 18.92 98.857 19.13 98.157 19.55C97.477 19.97 96.937 20.56 96.537 21.32C96.157 22.06 95.967 22.9 95.967 23.84C95.967 24.8 96.157 25.65 96.537 26.39C96.937 27.13 97.477 27.71 98.157 28.13C98.857 28.55 99.637 28.76 100.497 28.76ZM119.933 32.36C118.253 32.36 116.783 31.98 115.523 31.22C114.263 30.46 113.283 29.43 112.583 28.13C111.883 26.83 111.533 25.39 111.533 23.81C111.533 22.17 111.883 20.72 112.583 19.46C113.303 18.18 114.273 17.17 115.493 16.43C116.733 15.69 118.113 15.32 119.633 15.32C120.913 15.32 122.033 15.53 122.993 15.95C123.973 16.37 124.803 16.95 125.483 17.69C126.163 18.43 126.683 19.28 127.043 20.24C127.403 21.18 127.583 22.2 127.583 23.3C127.583 23.58 127.563 23.87 127.523 24.17C127.503 24.47 127.453 24.73 127.373 24.95H114.773V21.95H125.153L123.293 23.36C123.473 22.44 123.423 21.62 123.143 20.9C122.883 20.18 122.443 19.61 121.823 19.19C121.223 18.77 120.493 18.56 119.633 18.56C118.813 18.56 118.083 18.77 117.443 19.19C116.803 19.59 116.313 20.19 115.973 20.99C115.653 21.77 115.533 22.72 115.613 23.84C115.533 24.84 115.663 25.73 116.003 26.51C116.363 27.27 116.883 27.86 117.563 28.28C118.263 28.7 119.063 28.91 119.963 28.91C120.863 28.91 121.623 28.72 122.243 28.34C122.883 27.96 123.383 27.45 123.743 26.81L126.923 28.37C126.603 29.15 126.103 29.84 125.423 30.44C124.743 31.04 123.933 31.51 122.993 31.85C122.073 32.19 121.053 32.36 119.933 32.36ZM130.562 32V15.68H134.252V19.31L133.952 18.77C134.332 17.55 134.922 16.7 135.722 16.22C136.542 15.74 137.522 15.5 138.662 15.5H139.622V18.98H138.212C137.092 18.98 136.192 19.33 135.512 20.03C134.832 20.71 134.492 21.67 134.492 22.91V32H130.562ZM147.445 32V9.65H162.295V13.25H151.525V18.98H161.695V22.58H151.525V28.4H162.295V32H147.445ZM172.547 32.36C170.967 32.36 169.557 31.99 168.317 31.25C167.077 30.49 166.097 29.46 165.377 28.16C164.657 26.86 164.297 25.42 164.297 23.84C164.297 22.24 164.657 20.8 165.377 19.52C166.097 18.24 167.077 17.22 168.317 16.46C169.577 15.7 170.977 15.32 172.517 15.32C173.757 15.32 174.857 15.57 175.817 16.07C176.797 16.55 177.567 17.23 178.127 18.11L177.527 18.92V9.29H181.457V32H177.737V28.85L178.157 29.63C177.597 30.51 176.817 31.19 175.817 31.67C174.817 32.13 173.727 32.36 172.547 32.36ZM172.967 28.76C173.867 28.76 174.657 28.55 175.337 28.13C176.017 27.71 176.547 27.13 176.927 26.39C177.327 25.65 177.527 24.8 177.527 23.84C177.527 22.9 177.327 22.06 176.927 21.32C176.547 20.56 176.017 19.97 175.337 19.55C174.657 19.13 173.867 18.92 172.967 18.92C172.087 18.92 171.297 19.14 170.597 19.58C169.897 20 169.347 20.58 168.947 21.32C168.567 22.04 168.377 22.88 168.377 23.84C168.377 24.8 168.567 25.65 168.947 26.39C169.347 27.13 169.897 27.71 170.597 28.13C171.297 28.55 172.087 28.76 172.967 28.76ZM185.113 32V15.68H189.043V32H185.113ZM185.113 13.85V9.65H189.043V13.85H185.113ZM200.112 32.18C198.272 32.18 196.842 31.68 195.822 30.68C194.822 29.66 194.322 28.23 194.322 26.39V19.19H191.502V15.68H191.802C192.602 15.68 193.222 15.47 193.662 15.05C194.102 14.63 194.322 14.02 194.322 13.22V11.96H198.252V15.68H202.002V19.19H198.252V26.18C198.252 26.72 198.342 27.18 198.522 27.56C198.722 27.94 199.022 28.23 199.422 28.43C199.842 28.63 200.372 28.73 201.012 28.73C201.152 28.73 201.312 28.72 201.492 28.7C201.692 28.68 201.882 28.66 202.062 28.64V32C201.782 32.04 201.462 32.08 201.102 32.12C200.742 32.16 200.412 32.18 200.112 32.18ZM212.898 32.36C211.298 32.36 209.838 31.99 208.518 31.25C207.218 30.51 206.178 29.5 205.398 28.22C204.638 26.94 204.258 25.48 204.258 23.84C204.258 22.2 204.638 20.74 205.398 19.46C206.178 18.18 207.218 17.17 208.518 16.43C209.818 15.69 211.278 15.32 212.898 15.32C214.498 15.32 215.948 15.69 217.248 16.43C218.548 17.17 219.578 18.18 220.338 19.46C221.118 20.72 221.508 22.18 221.508 23.84C221.508 25.48 221.118 26.94 220.338 28.22C219.558 29.5 218.518 30.51 217.218 31.25C215.918 31.99 214.478 32.36 212.898 32.36ZM212.898 28.76C213.778 28.76 214.548 28.55 215.208 28.13C215.888 27.71 216.418 27.13 216.798 26.39C217.198 25.63 217.398 24.78 217.398 23.84C217.398 22.88 217.198 22.04 216.798 21.32C216.418 20.58 215.888 20 215.208 19.58C214.548 19.14 213.778 18.92 212.898 18.92C211.998 18.92 211.208 19.14 210.528 19.58C209.848 20 209.308 20.58 208.908 21.32C208.528 22.04 208.338 22.88 208.338 23.84C208.338 24.78 208.528 25.63 208.908 26.39C209.308 27.13 209.848 27.71 210.528 28.13C211.208 28.55 211.998 28.76 212.898 28.76ZM224.488 32V15.68H228.178V19.31L227.878 18.77C228.258 17.55 228.848 16.7 229.648 16.22C230.468 15.74 231.448 15.5 232.588 15.5H233.548V18.98H232.138C231.018 18.98 230.118 19.33 229.438 20.03C228.758 20.71 228.418 21.67 228.418 22.91V32H224.488Z" fill="#0E40F5"/>
<path fill-rule="evenodd" clip-rule="evenodd" d="M9.21963 10L5.12207 1L15.366 6L21.0001 1.5L27.1465 6L36.366 1L32.7806 10H9.21963ZM6.14634 13.0001L0 19.0001L21 43.0001L31.7561 31.0001H22.5366L21 32.5001L16.3902 28.0001H33.8049L42 19.0001L35.8537 13.0001H6.14634ZM31.7551 17.4883H10.2429L8.19415 19L11.7795 22.9883H30.2185L33.8039 19L31.7551 17.4883Z" fill="#0E40F5"/>
</svg>
